<?xml version="1.0" encoding="utf-8"?>
<!DOCTYPE svg PUBLIC "-//W3C//DTD SVG 1.0//EN" "http://www.w3.org/TR/2001/REC-SVG-20010904/DTD/svg10.dtd">
<svg version="1.0" xmlns="http://www.w3.org/2000/svg" width="2904px" height="916px" viewBox="0 0 2904 916" preserveAspectRatio="xMidYMid meet">
 <g fill="#fbdf3e">
  <path d="M1.2 482.8 l0.3 -432.3 2.6 -6.7 c3.9 -9.9 8.6 -17.3 15.5 -24.2 7.2 -7.2 14.4 -11.7 24.6 -15.4 l7.3 -2.7 1425.8 -0.3 1425.7 -0.2 0 319.7 0 319.8 -2.4 5 c-2.9 6.1 -8.4 11.7 -14.5 14.7 -4.3 2.1 -6.1 2.3 -26.8 2.6 l-22.3 0.3 0 -298 0 -298.1 -1373.7 0.2 -1373.8 0.3 -5.7 2.8 c-6.1 3 -10.5 7.4 -14 14 l-2.3 4.2 -0.3 380.3 -0.2 380.2 1288.8 0 1288.9 0 6.1 3.1 c6.6 3.3 10.9 7.7 14.4 14.9 2.1 4.2 2.3 6.2 2.6 26.3 l0.4 21.7 -1333.6 0 -1333.6 0 0.2 -432.2z"/>
 </g>
 <g fill="#000000">
  <path d="M1744.5 665 c-46.5 -4.1 -73.7 -18.3 -86.8 -45.4 -6.4 -13 -9.7 -27.1 -11.7 -48.6 -1.3 -15.3 -1.3 -191.2 0 -205.1 3.2 -32.9 11 -54.2 25.3 -69.5 19.4 -20.8 45.7 -29.8 91.2 -31.1 51.5 -1.5 86.4 7.6 106.1 27.6 15.5 15.6 23.5 40.2 24.6 75.6 l0.3 10 -17.5 0.2 c-16.5 0.3 -17.7 0.2 -21.4 -2 -5.6 -3.1 -7.5 -7 -8.6 -17.3 -1.9 -16.7 -6.8 -28.5 -14.8 -35.5 -5.2 -4.6 -16.4 -9.5 -26.2 -11.6 -7 -1.5 -13.3 -1.8 -35 -1.8 -24 0 -27.3 0.2 -35.2 2.2 -17.1 4.4 -27.6 11.9 -33.6 24.3 -7.6 15.7 -8.2 24.5 -8.2 127.6 0 86.4 0.4 99.3 3.7 113.9 4.7 21 16.5 33.3 37 38.5 12.7 3.3 34.2 4.5 53.9 3.2 25.9 -1.8 37.5 -5.3 46 -13.8 8.2 -8.2 11.7 -18.1 13.6 -39.3 1.3 -14.3 2.3 -17.2 8.1 -21.5 2.6 -1.9 4.4 -2.1 20.3 -2.4 15.6 -0.3 17.5 -0.2 18.1 1.4 1.1 2.8 -1.6 41.4 -3.6 51.4 -8.5 42.2 -32.1 61.2 -84.1 68 -11.4 1.5 -49.1 2.1 -61.5 1z"/>
  <path d="M579.7 663.3 c-0.4 -0.3 -0.7 -38 -0.7 -83.6 l0 -83 -49.5 -113.1 c-27.2 -62.3 -49.5 -113.5 -49.5 -113.9 0 -0.4 16.7 -0.6 37.1 -0.5 l37.2 0.3 15.3 36.3 c11.1 26.4 18.8 46.6 28.3 74.5 7.2 21 13.5 39.7 14.2 41.5 0.6 1.7 1.6 3.2 2.3 3.2 0.6 0 7.6 -19.4 15.5 -43.2 10.7 -32.1 18.1 -52.2 28.7 -77.8 l14.2 -34.5 37.2 -0.3 c35.2 -0.2 37.2 -0.1 36.7 1.5 -0.2 1 -22.3 52.3 -49.1 114 l-48.6 112.2 -0.2 83.3 -0.3 83.3 -34.1 0.3 c-18.7 0.1 -34.3 -0.1 -34.7 -0.5z"/>
  <path d="M1056 472.5 c0 -188.5 0 -191.6 2 -195.4 1.3 -2.7 3.3 -4.6 6.3 -6 4.3 -2.1 4.6 -2.1 111 -2.1 l106.7 0 0 24.9 c0 24.1 -0.1 24.9 -2.2 28.1 -1.3 1.8 -3.6 4.3 -5.1 5.4 -2.8 2.1 -3.6 2.1 -75.8 2.4 l-72.9 0.3 0 50.9 0 51 66.5 0 66.5 0 0 25.6 c0 24.5 -0.1 25.8 -2.2 29.5 -1.4 2.5 -3.7 4.6 -6.3 5.9 -4 1.9 -6.2 2 -64.3 2 l-60.2 0 0 52.5 0 52.5 75.3 0 c71.2 0 75.4 0.1 79.3 1.9 2.4 1.1 5 3.3 6.2 5.3 2.1 3.4 2.2 4.6 2.2 30.2 l0 26.6 -116.5 0 -116.5 0 0 -191.5z"/>
  <path d="M1923.4 662.3 c0.3 -1 23.7 -88.9 52.1 -195.3 28.3 -106.4 51.8 -194.3 52.1 -195.2 0.5 -1.7 2.6 -1.8 24.7 -1.8 l24.2 0 51.9 195.7 c28.6 107.7 52.1 196.4 52.4 197.1 0.3 0.9 -4.9 1.2 -24.2 1.2 -13.5 0 -24.6 -0.2 -24.6 -0.5 0 -0.4 -15.9 -58.9 -18.6 -68.2 l-1.5 -5.3 -59.7 0 -59.7 0 -8.8 32.3 c-4.8 17.7 -9.6 33.3 -10.6 34.6 -0.9 1.4 -3 3.4 -4.5 4.5 -2.5 1.9 -4.4 2.1 -24.3 2.4 -20.3 0.3 -21.4 0.2 -20.9 -1.5z m175.6 -118.3 c0 -0.6 -5.6 -24.1 -12.4 -52.3 -6.8 -28.2 -17.1 -71.3 -22.8 -96 -8.2 -35.5 -10.6 -44.7 -11.8 -44.5 -1.1 0.3 -4.4 12.9 -12.7 48.3 -6.2 26.4 -16.5 69.5 -22.8 95.7 -6.3 26.3 -11.5 48.2 -11.5 48.8 0 0.7 15.9 1 47 1 31.8 0 47 -0.3 47 -1z"/>
  <path d="M2257.2 660.3 c-3.3 -11.6 -105.2 -389.2 -105.2 -390.2 0 -0.8 6.1 -1.1 20.6 -1.1 22.8 0 24.7 0.4 28.4 6.5 2.4 4.1 36.8 132.8 58.4 219 20.8 82.6 19.4 77.5 20.9 77.5 0.9 0 7.7 -25.9 20.2 -76.2 10.4 -42 27.9 -110 39 -151.3 l20.2 -75 24.2 -0.3 c17.5 -0.2 24.1 0.1 24.1 0.9 0 1 -102 379.2 -105.2 390.2 l-1.1 3.7 -21.7 0 -21.7 0 -1.1 -3.7z"/>
  <path d="M318 497 l0 -166 -35.4 0 c-35 0 -35.3 0 -38.6 -2.2 -7.5 -5.1 -7.5 -5 -7.8 -33.9 l-0.3 -25.9 102.8 0 102.8 0 13 29.7 c7.2 16.3 13.1 30.2 13.3 31 0.3 1.1 -7 1.3 -39.7 1.3 l-40.1 0 0 166 0 166 -35 0 -35 0 0 -166z"/>
  <path d="M791.2 661 c-1.8 -1.1 -4.1 -3.4 -5.2 -5.2 -2 -3.3 -2 -5.5 -2 -195 l0 -191.8 28.7 0 c26.6 0 29 0.1 32.8 2 2.6 1.3 4.9 3.4 6.3 5.9 l2.2 3.9 0 159.6 0 159.6 70.5 0 c75.9 0 73.3 -0.2 78.2 5.2 3.6 4 4.3 9.1 4.3 34.1 l0 23.7 -106.2 0 c-104.3 0 -106.4 0 -109.6 -2z"/>
  <path d="M1345.2 471.8 c0.3 -179.4 0.4 -191.5 2 -194.5 1 -1.7 3.2 -4.2 5 -5.5 l3.3 -2.3 57 0 c41 0 59.7 0.4 66.5 1.3 62.3 8.5 92 33.3 102.7 85.8 2.7 13.2 2.6 67.4 -0.1 81.9 -6.6 35.3 -25 58.5 -56.3 70.7 -6.4 2.5 -8.3 3.7 -8.3 5.2 0 1.1 18 33.1 40 71.3 22 38.1 40 69.9 40 70.7 0 0.7 -0.9 2.5 -2.1 4 l-2.1 2.6 -36 -0.2 -36.1 -0.3 -39.1 -69.2 -39 -69.3 -13.8 0 -13.8 0 0 64.3 c0 62.3 -0.1 64.3 -2 67.5 -1.1 1.8 -3.4 4.1 -5.2 5.2 -3.1 1.9 -5.1 2 -33.1 2 l-29.7 0 0.2 -191.2z m126.8 -14.3 c21.7 -4.7 33.4 -16.2 37.2 -36.4 0.5 -3 0.8 -15.5 0.6 -28.5 -0.4 -20.5 -0.7 -23.8 -2.6 -29.8 -5.1 -15.3 -16.2 -23.7 -36.2 -27.4 -4.1 -0.8 -18.4 -1.7 -31.7 -2.1 l-24.3 -0.6 0 63.8 0 63.8 24.8 -0.6 c17.2 -0.4 27 -1.1 32.2 -2.2z"/>
  <path d="M2464 661.1 c-2 -1 -4.4 -3.6 -5.7 -6.1 l-2.3 -4.3 0 -191.4 0 -191.3 99.5 0 99.5 0 0 14.7 c0 17.3 -1.3 21.4 -7.9 25.1 l-3.9 2.2 -69.6 0 -69.6 0 0 60 0 60 68.3 0.2 68.2 0.3 0 16.5 c0 18.9 -0.9 21.7 -8.1 25.7 l-3.9 2.3 -62.2 0 -62.3 0 0 72 0 72 76 0 c73.7 0 76.2 0.1 79.9 2 6.8 3.4 8.1 7.8 8.1 26.3 l0 15.7 -100.3 0 c-95.7 0 -100.4 -0.1 -103.7 -1.9z"/>
 </g>
</svg>